<svg width="200" height="80" viewBox="0 0 200 80" fill="none" xmlns="http://www.w3.org/2000/svg">
<g clip-path="url(#clip0_702_150)">
<path d="M159.494 5.34345C159.491 6.39785 159.194 7.428 158.635 8.30373C158.078 9.17947 157.287 9.86147 156.361 10.2636C155.435 10.6657 154.418 10.7699 153.437 10.5629C152.456 10.356 151.554 9.84727 150.847 9.10099C150.139 8.35471 149.658 7.40437 149.463 6.37009C149.27 5.3358 149.37 4.26397 149.753 3.29003C150.137 2.31608 150.786 1.48372 151.619 0.898128C152.451 0.31254 153.429 1.90068e-06 154.43 0C155.096 -1.26403e-06 155.756 0.138284 156.37 0.406943C156.985 0.6756 157.544 1.06935 158.014 1.56567C158.485 2.06199 158.857 2.65113 159.111 3.29937C159.365 3.94761 159.495 4.64221 159.494 5.34345Z" fill="#231F20"/>
<path fill-rule="evenodd" clip-rule="evenodd" d="M160.738 9.78824C161.575 8.47464 162.023 6.92942 162.025 5.34782C162.027 4.83922 161.981 4.33295 161.891 3.83575C163.899 4.12192 165.838 4.4406 167.708 4.79179C176.608 6.4633 183.633 8.8078 188.785 11.8253C194.052 14.7911 196.885 18.2966 197.285 22.3417C197.549 25.014 196.925 27.6931 195.413 30.3795L195.908 27.9054V27.9026C196.327 25.8231 196.506 23.9096 196.335 22.2454C196.163 20.5721 195.604 18.9093 194.325 17.7109C192.28 15.7937 189.084 15.2007 185.556 15.2006L187.032 17.9091L187.03 17.909L185.554 15.2006C183.696 15.1994 181.938 15.3669 180.358 15.7742L180.548 15.3361H170.673C169.22 14.3929 167.606 13.5646 165.861 12.8749C164.504 11.8544 162.614 10.9589 160.48 10.1692C160.57 10.0451 160.656 9.9181 160.738 9.78824ZM175.985 18.0027C175.789 18.1815 175.6 18.3706 175.42 18.5699C175.286 18.7189 175.154 18.8731 175.027 19.0327C174.715 18.6814 174.387 18.3378 174.042 18.0027H175.985ZM177.419 22.5493C179.182 26.1194 179.32 30.1638 177.253 34.2083C176.601 35.4826 175.771 36.6986 174.816 37.8511C176.167 38.9003 178.537 39.425 181.928 39.425C184.437 39.425 186.537 39.1134 188.225 38.4873C189.284 37.605 190.261 36.7115 191.156 35.8069C191.2 35.7626 191.244 35.7184 191.289 35.6741C191.43 35.3969 191.563 35.0999 191.687 34.7833C191.954 34.1022 192.182 33.3301 192.37 32.4667C192.395 32.3517 192.419 32.235 192.443 32.1166H186.065L186.11 32.1648C186.096 32.2286 186.081 32.2911 186.065 32.3522C186.054 32.391 186.044 32.4291 186.034 32.4667C185.794 33.3259 185.425 33.897 184.928 34.1798C184.243 34.5331 183.486 34.6986 182.724 34.6606C180.973 34.6606 180.027 34.2585 179.844 33.4367C179.662 32.615 179.757 31.4086 180.077 29.8001H192.94L193.092 29.0394L194.567 31.7451L193.094 29.039L193.43 27.3523C194.21 23.4767 193.948 20.927 192.642 19.7031C191.533 18.6641 189.663 18.0661 187.032 17.9091L193.094 29.039L193.092 29.0394L187.03 17.909C186.562 17.8811 186.07 17.8673 185.554 17.8673C182.71 17.8652 180.49 18.2919 178.894 19.1477L177.419 22.5493ZM181.928 42.0917C182.433 42.0917 182.929 42.0799 183.414 42.0558C180.144 44.231 176.346 46.3334 172.018 48.363C163.666 52.239 153.635 55.6958 141.927 58.733C130.333 61.7188 117.516 63.9819 103.475 65.5226C89.3135 67.0766 76.2144 67.7157 64.1772 67.4399C52.14 67.1641 41.6677 66.152 32.7604 64.4034C23.8491 62.6164 16.7542 60.1821 11.4757 57.1008C6.31332 53.9677 3.5264 50.3207 3.1149 46.1601C2.68436 41.8069 4.68069 37.4598 9.10388 33.1191C10.5504 31.7195 12.1908 30.3499 14.0252 29.0106L11.5821 41.1981H21.6645C22.1327 45.0929 23.1377 48.4929 26.8973 51.8892C31.3276 55.8913 43.7087 61.5417 56.367 63.5417C60.2447 64.3585 65.6468 64.6246 71.0816 64.8925H71.082C74.5175 65.0617 77.9659 65.2316 81.0505 65.5417C89.2783 65.5417 98.8177 64.6478 108.899 63.5417C116.099 62.7516 122.19 61.5417 128.519 60.2084C130.923 59.451 133.2 58.8516 135.38 58.2773V58.2772C138.534 57.4465 141.489 56.6684 144.342 55.5417C145.396 55.1253 146.395 54.7378 147.351 54.3673L147.353 54.3665L147.356 54.3651L147.357 54.3646L147.358 54.3644V54.3642C150.99 52.956 153.995 51.7908 157 50.2084C160.346 48.6977 167.796 45.027 173.051 39.7819C174.018 40.6163 175.208 41.1454 176.449 41.4841C178.006 41.9089 179.853 42.0917 181.928 42.0917ZM13.9237 39.1981L16.2797 27.4439C18.8568 25.7374 21.7602 24.0816 24.9897 22.4764L21.6378 39.1981H13.9237ZM44.6748 18.6618C42.4644 19.6465 40.3711 20.6328 38.6454 21.5417C37.99 22.094 36.9815 22.7321 35.7719 23.4975H35.7718C32.9142 25.3058 28.9342 27.8243 25.8337 31.5999L27.9461 21.063C28.1137 20.986 28.282 20.909 28.4511 20.8321C30.4758 19.9119 32.5992 19.0174 34.8214 18.1486L34.0789 21.8574H34.3361C34.8692 20.7865 35.6313 19.8646 36.5589 19.1625C36.7296 19.0333 36.9058 18.9115 37.0873 18.7977C38.2229 18.1566 39.4967 17.8359 40.7847 17.8667C42.3613 17.8667 43.658 18.1318 44.6748 18.6618ZM41.0505 15.869C46.4001 14.035 52.2402 12.3291 58.5706 10.751C70.2877 7.79076 83.2269 5.53366 97.3881 3.97972C111.429 2.43895 124.405 1.77452 136.314 1.98643C140.157 2.04991 143.84 2.18855 147.363 2.40232C146.876 3.70818 146.723 5.12504 146.918 6.5104C146.461 6.40599 146.023 6.30538 145.608 6.20828C145.268 6.16863 144.911 6.12663 144.539 6.08267L144.537 6.08238C138.635 5.38739 128.624 4.20828 120.291 4.20828C111.43 4.20828 101.159 4.90456 89.2783 6.20828C83.0202 6.895 77.253 8.20828 71.5568 9.54162C68.432 10.5091 65.6662 11.2221 63.0686 11.8917C60.9694 12.4329 58.98 12.9457 56.9999 13.5417C54.208 14.6444 50.4539 16.1526 46.7989 17.7309L46.7743 17.7099C45.263 16.4325 43.2716 15.9073 41.0505 15.869ZM184.625 22.7672H184.97C185.92 22.7697 186.595 22.9545 186.996 23.3219C187.068 23.3875 187.132 23.4591 187.185 23.5365C187.265 23.6529 187.33 23.7849 187.38 23.9323C187.553 24.4381 187.553 25.1255 187.38 25.9886H180.873C181.003 25.113 181.339 24.2859 181.853 23.5845C181.933 23.4886 182.03 23.401 182.146 23.3219C182.646 22.9758 183.472 22.7909 184.625 22.7672Z" fill="#2F6EB6"/>
<path d="M21.6382 39.1979H13.9241L19.9951 8.91138H27.7093L21.6382 39.1979Z" fill="#231F20"/>
<path d="M34.8504 18.0028L34.0785 21.858H34.3358C34.967 20.59 35.9192 19.531 37.0871 18.7983C38.2226 18.1572 39.4963 17.8366 40.7844 17.8672C42.8786 17.8672 44.479 18.335 45.5856 19.2704C46.6921 20.2058 47.0006 21.8856 46.5109 24.3102L43.5315 39.1976H36.9791L39.469 26.7623C39.6424 25.9648 39.6691 25.1399 39.5478 24.332C39.4191 23.5932 38.8424 23.2218 37.8091 23.2218C36.797 23.1976 35.8007 23.4898 34.9458 24.061C34.5171 24.3818 34.1539 24.79 33.8781 25.2616C33.6021 25.7331 33.4191 26.2583 33.3399 26.8059L30.8501 39.1976H24.3102L28.5595 18.0028H34.8504Z" fill="#231F20"/>
<path d="M56.4415 18.0031L55.6656 21.8583H55.9228C56.5133 20.6051 57.4376 19.5601 58.5829 18.8513C59.7281 18.1427 61.0446 17.8008 62.3714 17.8676C64.4656 17.8676 66.0659 18.3353 67.1725 19.2707C68.2791 20.2061 68.589 21.886 68.102 24.3104L65.1143 39.198H58.5661L61.0559 26.7625C61.2272 25.9649 61.2539 25.1404 61.1348 24.3323C61.0062 23.5936 60.4294 23.222 59.3961 23.222C58.3841 23.1985 57.3878 23.4905 56.5328 24.0613C56.1041 24.382 55.7409 24.7904 55.4651 25.2619C55.1891 25.7335 55.0062 26.2587 54.9268 26.8063L52.4371 39.198H45.8972L50.1506 18.0031H56.4415Z" fill="#231F20"/>
<path d="M72.8576 19.8385C74.4843 18.5243 77.0778 17.8672 80.6382 17.8672C84.3204 17.8672 86.9083 18.3961 88.4023 19.4539C89.8961 20.5116 90.2101 23.2056 89.3442 27.5359C88.5309 31.5863 87.4921 34.5819 86.2278 36.5225C84.9635 38.4633 82.0449 39.4307 77.472 39.4249C73.9116 39.4249 71.3636 38.88 69.8283 37.7901C68.2929 36.7003 67.9472 34.0529 68.7909 29.848L69.264 27.4877C70.033 23.7083 71.2309 21.1585 72.8576 19.8385ZM75.4387 29.6208C75.1482 31.072 75.1109 32.2433 75.3307 33.0695C75.5507 33.8956 76.4471 34.3415 78.0239 34.3415C79.3767 34.3415 80.3353 33.9961 80.908 33.2968C81.5668 32.4009 82.0123 31.3516 82.2068 30.2371C82.2566 29.9967 82.3023 29.7475 82.3562 29.4896C82.4056 29.2363 82.4706 28.9865 82.5512 28.7421C82.5968 28.4975 82.6467 28.2527 82.7006 27.9904C82.7545 27.7281 82.8002 27.4833 82.85 27.2429C83.1447 25.7612 83.1653 24.6772 82.8997 23.9997C82.6342 23.3221 81.7504 22.9769 80.2564 22.9769C78.6215 22.9769 77.5425 23.414 77.0197 24.2881C76.4104 25.4305 75.9895 26.6735 75.7748 27.9641L75.6586 28.5543L75.4387 29.6208Z" fill="#231F20"/>
<path d="M101.785 39.1975H91.411L90.1453 18.0027H97.038L97.3243 34.6124H97.5401L104.151 18.0027H110.956L101.785 39.1975Z" fill="#231F20"/>
<path d="M116.578 24.3098H109.939C110.561 21.1948 111.806 19.3414 113.674 18.75C115.757 18.1314 117.916 17.8369 120.081 17.8757C122.894 17.8757 125.182 18.2532 126.944 19.0078C128.706 19.7626 129.22 21.9334 128.484 25.5206L125.745 39.1844H119.193L120.081 36.0504H119.819C119.659 36.5648 119.402 37.0404 119.065 37.4494C118.728 37.8584 118.317 38.1926 117.856 38.4325C116.96 38.8989 115.989 39.185 114.993 39.2761C114.637 39.3336 114.278 39.3716 113.918 39.3897C113.553 39.3897 113.213 39.4116 112.902 39.4116C110.888 39.4116 109.341 38.957 108.262 38.0478C107.184 37.1386 106.872 35.536 107.329 33.2397C107.882 30.4249 108.943 28.5716 110.512 27.6798C112.08 26.7882 114.037 26.3409 116.383 26.338H117.118C117.957 26.3556 118.789 26.5029 119.587 26.775C119.972 26.9186 120.311 27.1714 120.568 27.5053C120.825 27.8393 120.99 28.2416 121.043 28.6677L121.317 28.624L122.089 24.7644C122.294 23.7386 122.212 23.035 121.844 22.6533C121.475 22.2773 120.786 22.085 119.769 22.085C119.039 22.0378 118.308 22.1788 117.641 22.4958C117.168 22.7669 116.807 23.3876 116.558 24.358L116.578 24.3098ZM114.039 32.6628C113.809 33.8138 114.006 34.4869 114.628 34.6822C115.337 34.8905 116.071 34.9892 116.807 34.975C117.595 34.9833 118.379 34.8533 119.126 34.5904C119.84 34.3325 120.296 33.69 120.504 32.6628C120.504 32.6016 120.525 32.5492 120.533 32.5054C120.541 32.4617 120.533 32.418 120.558 32.3874C120.606 32.1653 120.624 31.9373 120.612 31.71C120.599 31.5028 120.513 31.308 120.371 31.1636C120.165 30.9758 119.923 30.8358 119.662 30.7526C119.357 30.6609 119.044 30.6009 118.728 30.5734C118.494 30.5432 118.258 30.5285 118.022 30.5297H117.354C116.633 30.516 115.914 30.6388 115.234 30.8925C114.628 31.1329 114.225 31.7405 114.03 32.7065L114.039 32.6628Z" fill="#231F20"/>
<path d="M146.228 22.9946H138.6L136.882 31.5748C136.862 31.6623 136.846 31.741 136.837 31.7978C136.823 31.858 136.823 31.9211 136.837 31.9814C136.837 32.0731 136.804 32.165 136.784 32.2523C136.762 32.3398 136.746 32.4359 136.729 32.5234C136.654 32.9568 136.654 33.4011 136.729 33.8347C136.808 34.2324 137.144 34.4291 137.709 34.4291C138.485 34.4291 139.015 34.215 139.297 33.7954C139.628 33.2695 139.862 32.6843 139.991 32.0688L140.07 31.6798C140.097 31.5475 140.138 31.4187 140.19 31.2951C140.215 31.1771 140.239 31.0459 140.268 30.9104C140.297 30.775 140.323 30.6482 140.343 30.5258L145.614 30.4778C145.577 30.6614 145.548 30.8362 145.527 31.0023C145.51 31.1626 145.486 31.3216 145.452 31.4787C145.423 31.6274 145.397 31.789 145.377 31.9551C145.356 32.1212 145.335 32.283 145.306 32.4315C144.775 35.0542 143.858 36.8695 142.556 37.8778C141.252 38.886 139.22 39.3858 136.46 39.3771C134.191 39.3771 132.411 39.0055 131.123 38.2624C129.834 37.5194 129.468 35.7579 130.028 32.9779L132.032 22.9903H129.575L130.587 18.003H133.044L133.937 13.5532H140.489L139.592 18.003H147.228L146.228 22.9946Z" fill="#231F20"/>
<path d="M151.423 39.1975H144.875L149.128 18.0027H155.676L151.423 39.1975Z" fill="#231F20"/>
<path d="M186.065 32.1165H192.443C191.778 35.4473 190.551 37.4929 188.775 38.2665C186.999 39.0403 184.716 39.4249 181.928 39.4249C178.022 39.4249 175.47 38.7284 174.271 37.3356C173.073 35.9427 172.897 33.1597 173.744 28.9869C174.554 24.9628 175.725 22.1027 177.256 20.4067C178.785 18.7108 181.552 17.8643 185.554 17.8672C188.973 17.8672 191.337 18.4792 192.642 19.7031C193.948 20.9269 194.21 23.4767 193.43 27.3523L192.94 29.8H180.077C179.757 31.4085 179.662 32.6149 179.844 33.4367C180.027 34.2584 180.973 34.6605 182.724 34.6605C183.486 34.6985 184.243 34.5331 184.928 34.1797C185.481 33.8649 185.876 33.1933 186.11 32.1647L186.065 32.1165ZM187.185 23.5364C186.828 23.0264 186.09 22.77 184.97 22.7671H184.625C183.209 22.7963 182.285 23.0687 181.853 23.5844C181.339 24.2859 181.003 25.1129 180.873 25.9885H187.38C187.604 24.8739 187.538 24.0521 187.185 23.5364Z" fill="#231F20"/>
<path d="M167.411 39.1975H157.038L155.792 18.0027H162.69L162.976 34.6124H163.191L169.797 18.0027H176.608L167.411 39.1975Z" fill="#231F20"/>
<path d="M86.699 45.8555V47.5296H99.3223L98.6832 45.8555H86.699Z" fill="#231F20"/>
<path d="M64.5854 47.5296H84.5246C84.3686 46.9273 84.1099 46.3601 83.761 45.8555H64.5854V47.5296Z" fill="#231F20"/>
<path d="M71.8146 52.1704H64.5817V54.5352H71.7648L71.8146 52.1704Z" fill="#231F20"/>
<path d="M62.913 52.1704H53.9829V54.5352H62.913V52.1704Z" fill="#231F20"/>
<path d="M62.913 49.8152H53.9829V51.7122H62.913V49.8152Z" fill="#231F20"/>
<path d="M62.913 47.9883H53.9829V49.3608H62.913V47.9883Z" fill="#231F20"/>
<path d="M62.913 45.8555H53.9829V47.5296H62.913V45.8555Z" fill="#231F20"/>
<path d="M99.4966 47.9883H86.699V49.3608H100.015L99.4966 47.9883Z" fill="#231F20"/>
<path d="M113.729 45.3959V43.9011H102.488L101.899 45.3959H113.729Z" fill="#231F20"/>
<path d="M64.5817 47.9883V49.3608H71.8727L71.8976 47.9883H64.5817Z" fill="#231F20"/>
<path d="M71.8228 51.7166L71.8603 49.8152H64.5817V51.7166H71.8228Z" fill="#231F20"/>
<path d="M74.7849 47.9883C75.391 48.2425 75.8812 48.7323 76.1543 49.3564H84.7897C84.773 48.8965 84.7202 48.4389 84.632 47.9883H74.7849Z" fill="#231F20"/>
<path d="M84.7614 51.7122C84.7822 51.1265 84.7987 50.5015 84.7987 49.8152H76.3252C76.4714 50.3237 76.5414 50.8532 76.5327 51.3844C76.5327 51.5024 76.5327 51.6029 76.5327 51.7122H84.7614Z" fill="#231F20"/>
<path d="M100.879 47.9883L100.335 49.3608H113.73V47.9883H100.879Z" fill="#231F20"/>
<path d="M64.5854 54.9902V58.5264L80.0222 58.6137C82.5119 58.5525 83.8191 57.6653 84.4 54.9902H64.5854Z" fill="#231F20"/>
<path d="M62.913 54.9949H53.9829V58.531H62.913V54.9949Z" fill="#231F20"/>
<path d="M62.913 43.8972H53.9829V45.3964H62.913V43.8972Z" fill="#231F20"/>
<path d="M86.699 54.9949V58.5266H95.1311L95.5792 54.9949H86.699Z" fill="#231F20"/>
<path d="M95.849 54.9949L97.9404 58.5266L102.488 58.531L104.584 54.9949H95.849Z" fill="#231F20"/>
<path d="M104.849 54.9949L105.298 58.531H113.73V54.9949H104.849Z" fill="#231F20"/>
<path d="M98.513 45.3964L97.9404 43.8972H86.699V45.3964H98.513Z" fill="#231F20"/>
<path d="M113.734 52.1704H86.699V54.5352H113.734V52.1704Z" fill="#231F20"/>
<path d="M113.734 49.8152H86.699V51.7122H113.734V49.8152Z" fill="#231F20"/>
<path d="M83.3917 45.3965C81.8232 43.7005 79.5076 43.8885 79.5076 43.8885H64.6268H64.5854V45.3877L83.3917 45.3965Z" fill="#231F20"/>
<path d="M101.717 45.8555L101.057 47.5296H113.73V45.8555H101.717Z" fill="#231F20"/>
<path d="M84.7404 52.1843H76.4909C76.3539 53.4957 75.856 54.1775 75.1879 54.549H84.4874C84.6183 53.7671 84.7027 52.9773 84.7404 52.1843Z" fill="#231F20"/>
<path d="M15.9366 72.5792L15.2105 73.7549L13.9241 73.4009L17.7791 67.1809L19.605 67.688L20.0988 75.1186L18.8538 74.769L18.7501 73.3616L15.9366 72.5792ZM18.472 68.4442L16.4885 71.67L18.721 72.2906L18.472 68.4442Z" fill="#231F20"/>
<path d="M23.8497 75.8926L23.9949 75.1495H23.9618C23.5842 75.7396 22.9825 75.7746 22.3558 75.6391C21.4387 75.4424 20.891 74.9791 21.0861 73.9212L21.7624 70.4246L22.8621 70.6606L22.2729 73.7202C22.1401 74.4108 22.1483 74.6906 22.858 74.8436C23.688 75.0271 24.049 74.7036 24.2107 73.8688L24.7502 71.0802L25.8499 71.3162L24.9162 76.1462L23.8497 75.8926Z" fill="#231F20"/>
<path d="M26.3604 71.3813L26.9414 71.4862L27.1156 70.3804L28.2236 70.577L28.0493 71.6785L29.8171 71.9932L29.676 72.8674L27.9082 72.557L27.4933 75.0485C27.431 75.4856 27.3979 75.6998 27.8626 75.7829C28.4891 75.8921 28.5017 75.3457 28.5846 74.8518L29.5598 75.0222C29.3399 76.4997 28.9208 76.88 27.7215 76.6701C26.5222 76.4604 26.1861 76.0932 26.3812 74.8606L26.7961 72.3604L26.2152 72.2554L26.3604 71.3813Z" fill="#231F20"/>
<path d="M34.378 75.1758C34.129 77.064 33.8011 77.6322 31.8633 77.3612C29.9253 77.0902 29.7635 76.4346 30.0125 74.5463C30.2615 72.658 30.5934 72.0811 32.5272 72.3608C34.461 72.6406 34.6435 73.2787 34.378 75.1758ZM31.1247 74.708C30.9504 76.0194 30.9918 76.3078 31.9835 76.4564C32.9753 76.605 33.0915 76.3252 33.2616 75.0227C33.4319 73.7202 33.3986 73.388 32.4068 73.2438C31.4151 73.0995 31.3114 73.3836 31.1371 74.708H31.1247Z" fill="#231F20"/>
<path d="M36.519 72.9684L36.4443 73.6765H36.4816C36.7929 73.0776 37.4361 73.0077 38.0211 73.0733C38.6063 73.1388 39.2661 73.3705 39.3158 74.0961H39.3573C39.6395 73.436 40.2952 73.3224 40.9135 73.388C42.121 73.5234 42.4738 74.0042 42.3534 75.2106L42.0256 78.5238L40.9052 78.4014L41.2289 75.1976C41.262 74.5812 41.1458 74.3233 40.5318 74.2534C39.6271 74.1529 39.4072 74.5637 39.32 75.4292L39.0462 78.196L37.9299 78.0737L38.2494 74.8697C38.2827 74.249 38.1665 73.9956 37.5565 73.9256C36.6518 73.8206 36.4319 74.2316 36.3447 75.1014L36.0667 77.8638L34.9504 77.7414L35.4401 72.8372L36.519 72.9684Z" fill="#231F20"/>
<path d="M46.1919 78.2436H46.1629C45.8932 78.8775 45.2085 78.8424 44.6648 78.7988C43.6067 78.7114 42.9386 78.4228 43.0341 77.0898C43.1212 75.9095 43.7353 75.6298 44.889 75.726C45.4575 75.7696 46.0176 75.8266 46.2458 76.4035H46.2791L46.3289 75.7696C46.387 74.9698 46.3289 74.6856 45.4118 74.607C44.9222 74.5676 44.5279 74.5851 44.4781 75.219L43.3577 75.1271C43.4656 73.6979 44.4034 73.7154 45.4699 73.8159C46.9638 73.9383 47.5696 74.253 47.4493 75.8834L47.221 78.9648L46.1006 78.8731L46.1919 78.2436ZM44.1586 77.1815C44.1047 77.8766 44.3661 77.9639 45.1255 78.0251C45.7189 78.0732 46.1588 78.0514 46.2127 77.352C46.2666 76.6526 45.7977 76.609 45.2293 76.5652C44.6608 76.5215 44.2084 76.4778 44.1586 77.1815Z" fill="#231F20"/>
<path d="M48.0345 74.0614L48.6238 74.1008L48.6859 72.9817L49.8105 73.0561L49.7318 74.1706L51.5202 74.2886L51.4704 75.189L49.6777 75.071L49.5325 77.5976C49.5325 78.0346 49.5035 78.2532 49.9766 78.2837C50.6073 78.323 50.5658 77.7942 50.599 77.2784L51.5866 77.3396C51.5161 78.8345 51.1343 79.2629 49.9267 79.1841C48.7192 79.1054 48.3416 78.7821 48.4163 77.532L48.5615 75.0012L47.9764 74.9618L48.0345 74.0614Z" fill="#231F20"/>
<path d="M53.1428 79.3102L52.0224 79.249L52.263 74.3273L53.3834 74.3885L53.1428 79.3102ZM53.4373 73.2826L52.317 73.2214L52.3627 72.2161L53.4872 72.2773L53.4373 73.2826Z" fill="#231F20"/>
<path d="M58.5077 77.0983C58.433 79.004 58.1633 79.6029 56.2088 79.5199C54.2543 79.4368 54.0302 78.8161 54.1049 76.8972C54.1796 74.9784 54.4493 74.384 56.4038 74.4669C58.3583 74.55 58.5824 75.1751 58.5077 77.0983ZM55.2253 76.9672C55.1755 78.2785 55.2253 78.5757 56.2462 78.6195C57.2669 78.6631 57.3334 78.3747 57.3831 77.0589C57.4329 75.7433 57.3831 75.4243 56.3664 75.3805C55.3498 75.3368 55.2792 75.6253 55.2253 76.9584V76.9672Z" fill="#231F20"/>
<path d="M60.5787 74.6817V75.4247H60.6119C60.8816 74.7079 61.4418 74.6511 62.1057 74.6686C63.3506 74.7035 63.695 75.2499 63.6661 76.4519L63.583 79.6953L62.4626 79.669L62.5373 76.5394C62.5581 75.8269 62.4128 75.5778 61.7073 75.5603C60.7239 75.5297 60.5786 75.9974 60.558 76.8978L60.4915 79.6122L59.3669 79.5815L59.4915 74.6511L60.5787 74.6817Z" fill="#231F20"/>
<path d="M81.1118 75.0271V74.6426C81.1118 73.8251 80.7965 73.7683 79.6719 73.7902C78.3814 73.7902 78.1614 74.0394 78.178 75.4206L78.1987 76.9766C78.2279 78.384 78.3938 78.6551 79.7382 78.6332C80.7715 78.6332 81.2363 78.5764 81.2197 77.5711V77.1864H82.5061V77.6235C82.5601 79.7435 81.4106 79.6867 79.7549 79.809C77.402 79.9358 76.9705 79.1271 76.9165 77.0684L76.8958 75.4555C76.8667 73.2 77.6884 72.6843 79.6595 72.6536C81.3194 72.6275 82.2779 72.6231 82.3941 74.6426V75.0271H81.1118Z" fill="#231F20"/>
<path d="M87.5552 77.0984C87.6009 79.0042 87.3644 79.6204 85.4099 79.673C83.4553 79.7254 83.1981 79.1178 83.1524 77.212C83.1068 75.3063 83.3433 74.6768 85.2978 74.6288C87.2523 74.5807 87.5138 75.1883 87.5552 77.0984ZM84.2769 77.1902C84.3061 78.5015 84.3932 78.7943 85.3891 78.7682C86.385 78.7419 86.4639 78.4534 86.4348 77.1378C86.4058 75.822 86.3146 75.5074 85.3186 75.5292C84.3227 75.5511 84.2438 75.8614 84.2769 77.1946V77.1902Z" fill="#231F20"/>
<path d="M89.5102 74.5678L89.531 75.3109H89.5683C89.7966 74.581 90.3526 74.4847 91.0124 74.463C92.2573 74.4237 92.6349 74.9438 92.6723 76.1458L92.7719 79.3934L91.6515 79.4327L91.5519 76.3075C91.5519 75.5906 91.3734 75.3546 90.6514 75.3765C89.668 75.4114 89.5518 75.9054 89.5767 76.7883L89.6638 79.5027L88.5392 79.5377L88.3857 74.6115L89.5102 74.5678Z" fill="#231F20"/>
<path d="M93.1288 74.4323H93.7139L93.6766 73.3133L94.8011 73.2695L94.8385 74.3886L96.6311 74.3186L96.6602 75.2234L94.8676 75.289L94.9547 77.8154C94.9796 78.2526 94.9878 78.4711 95.461 78.4537C96.0918 78.4274 96.0045 77.9073 95.9838 77.3914L96.9756 77.3521C97.042 78.847 96.7018 79.3103 95.49 79.3541C94.2783 79.3978 93.8758 79.1137 93.8301 77.8679L93.743 75.3327H93.1538L93.1288 74.4323Z" fill="#231F20"/>
<path d="M98.37 74.039L98.4074 74.6858H98.4529C98.539 74.4343 98.6977 74.2175 98.907 74.0662C99.1162 73.9148 99.3653 73.8364 99.619 73.8422C100.607 73.7286 100.91 74.3143 101.005 75.241L101.046 75.6299L100.001 75.7567L99.976 75.5032C99.9219 75.0092 99.8472 74.7251 99.3245 74.782C98.6605 74.8607 98.4945 75.2847 98.5899 75.9184L98.9095 78.9431L97.7932 79.0743L97.2786 74.17L98.37 74.039Z" fill="#231F20"/>
<path d="M106.026 75.5647C106.25 77.4573 106.071 78.0955 104.133 78.3489C102.196 78.6025 101.872 78.0256 101.644 76.1329C101.415 74.2403 101.594 73.5933 103.536 73.3399C105.478 73.0863 105.802 73.6589 106.026 75.5647ZM102.768 76.0017C102.922 77.3131 103.034 77.5884 104.013 77.4573C104.992 77.3261 105.05 77.0203 104.897 75.7089C104.743 74.3976 104.627 74.096 103.652 74.2272C102.677 74.3583 102.61 74.6729 102.768 75.9975V76.0017Z" fill="#231F20"/>
<path d="M108.371 77.7194L107.258 77.8724L106.383 70.8788L107.495 70.7214L108.371 77.7194Z" fill="#231F20"/>
<path d="M111.806 73.6014C111.727 73.0157 111.437 73.0594 110.844 73.1644C110.25 73.2693 109.843 73.313 109.931 73.9556C109.997 74.4364 110.122 74.4364 111.101 74.3401C112.205 74.2309 113.176 74.0036 113.375 75.5902C113.553 76.9016 112.578 77.1857 111.404 77.3605C110.159 77.5485 109.292 77.6752 109.08 76.0842L110.192 75.9181C110.304 76.6218 110.474 76.683 111.296 76.5606C111.96 76.4645 112.35 76.4252 112.263 75.752C112.205 75.3149 112.151 75.1138 111.018 75.2624C109.308 75.4853 108.968 75.2886 108.798 74.0429C108.619 72.7054 109.536 72.5393 110.727 72.3645C111.64 72.229 112.727 72.0848 112.91 73.4529L111.806 73.6014Z" fill="#231F20"/>
<path d="M127.571 72.2078L127.966 74.5026L126.72 74.743L125.525 67.8106L128.886 67.1637C130.33 66.9277 130.962 67.2949 131.235 68.8641C131.414 69.8913 131.489 70.6518 130.405 71.0496V71.0845C131.314 70.997 131.622 71.4648 131.791 72.4438L132.011 73.7552L130.766 73.9956L130.542 72.6842C130.443 72.1029 130.128 71.7401 129.538 71.845L127.571 72.2078ZM129.044 70.7524C129.973 70.5732 130.168 70.3152 129.995 69.3186C129.82 68.3221 129.625 68.1953 128.725 68.3701L126.97 68.7024L127.385 71.0714L129.044 70.7524Z" fill="#231F20"/>
<path d="M136.833 71.1282C137.119 72.6493 136.303 72.8766 134.986 73.165C133.232 73.5278 132.762 73.0121 132.414 71.1457C132.09 69.3973 132.21 68.6017 134.073 68.217C135.937 67.8325 136.323 68.3526 136.716 70.4638L133.559 71.1194C133.754 72.1597 133.842 72.4876 134.833 72.2821C135.443 72.1554 135.875 72.0724 135.742 71.3554L136.833 71.1282ZM135.472 69.9568C135.285 68.9602 135.132 68.9165 134.227 69.0825C133.323 69.2486 133.252 69.5197 133.397 70.3633L135.472 69.9568Z" fill="#231F20"/>
<path d="M138.211 68.1474H138.244C138.397 67.4481 138.875 67.1902 139.521 67.046C141.224 66.6701 141.501 67.789 141.796 69.2708C142.078 70.6826 142.078 71.6354 140.505 71.9852C139.949 72.1076 139.343 72.1294 138.987 71.5918H138.946L139.489 74.3237L138.389 74.5684L137.008 67.6536L138.108 67.4088L138.211 68.1474ZM140.7 69.5068C140.481 68.4141 140.381 67.7584 139.377 67.9945C138.252 68.248 138.394 68.8206 138.625 69.9701C138.829 70.9973 139.062 71.382 140.011 71.1678C140.767 71.0017 140.942 70.722 140.696 69.5068H140.7Z" fill="#231F20"/>
<path d="M146.029 70.0002H146C145.922 70.6951 145.257 70.8743 144.725 70.9967C143.689 71.2459 142.971 71.1759 142.692 69.8734C142.443 68.7195 142.946 68.2649 144.078 67.9939C144.634 67.8585 145.186 67.7361 145.565 68.2169H145.597L145.465 67.5918C145.295 66.8138 145.173 66.5558 144.261 66.7745C143.784 66.8881 143.41 67.0235 143.543 67.6486L142.448 67.9109C142.149 66.5078 143.049 66.2325 144.108 65.9833C145.572 65.6335 146.232 65.7298 146.577 67.3426L147.228 70.3542L146.133 70.6165L146.029 70.0002ZM143.789 69.6199C143.933 70.3018 144.203 70.3018 144.946 70.127C145.53 69.9871 145.946 69.8297 145.796 69.1435C145.647 68.4573 145.178 68.5665 144.639 68.7063C144.099 68.8462 143.638 68.9337 143.789 69.6199Z" fill="#231F20"/>
<path d="M147.978 63.9505L146.884 64.226L146.663 63.2468L147.759 62.9714L147.978 63.9505ZM149.308 69.8296L148.211 70.1049L147.128 65.2968L148.224 65.0214L149.308 69.8296Z" fill="#231F20"/>
<path d="M150.153 64.5365L150.273 65.1747H150.319C150.372 64.9059 150.505 64.6621 150.7 64.4795C150.894 64.2968 151.139 64.1851 151.399 64.1605C152.357 63.9115 152.73 64.4491 152.947 65.3539L153.033 65.7341L152.013 66.0008L151.954 65.756C151.843 65.2752 151.734 65.0041 151.224 65.1353C150.572 65.3057 150.477 65.7472 150.639 66.3636L151.337 69.314L150.244 69.5981L149.116 64.8163L150.153 64.5365Z" fill="#231F20"/>
<path d="M156.241 64.2743C156.096 63.7018 155.827 63.7805 155.233 63.9422C154.639 64.1039 154.257 64.2175 154.403 64.8426C154.523 65.3146 154.648 65.2797 155.606 65.0786C156.689 64.8382 157.619 64.4885 158.009 66.0358C158.333 67.3253 157.399 67.7186 156.249 68.0378C155.004 68.383 154.175 68.6147 153.801 67.063L154.889 66.757C155.075 67.4433 155.253 67.4826 156.054 67.2597C156.701 67.0805 157.084 66.9887 156.922 66.3374C156.814 65.9003 156.739 65.7167 155.639 66.0053C153.98 66.4423 153.606 66.2894 153.299 65.0742C152.971 63.7629 153.86 63.4875 155.025 63.1641C155.913 62.915 156.976 62.6353 157.311 63.9727L156.241 64.2743Z" fill="#231F20"/>
<path d="M171.316 60.8475L171.42 61.1579C171.677 61.9185 172.005 61.8573 173.122 61.4377C174.238 61.0181 174.305 60.7602 174.047 59.9909C173.728 59.0423 173.287 59.3439 172.329 59.6411C170.939 60.0783 169.881 60.5154 169.234 58.5834C168.619 56.7607 169.694 56.3018 171.209 55.7379C172.495 55.2571 173.562 54.9074 174.147 56.6514L174.218 56.8657L173.006 57.3027L172.935 57.0929C172.695 56.3761 172.408 56.4503 171.557 56.7694C170.358 57.2066 170.205 57.4119 170.442 58.1201C170.715 58.9331 170.885 58.9025 172.138 58.5266C174.122 57.9234 174.69 57.8359 175.254 59.5231C175.886 61.3939 175.097 61.8661 173.475 62.4693C172.08 62.9894 170.848 63.5007 170.209 61.595L170.105 61.2847L171.316 60.8475Z" fill="#231F20"/>
<path d="M180.03 58.1418C180.566 59.5842 179.803 59.982 178.558 60.4933C176.897 61.184 176.342 60.7644 175.682 58.9897C175.068 57.3462 175.051 56.5289 176.81 55.7989C178.57 55.069 179.047 55.5105 179.795 57.5124L176.786 58.7406C177.156 59.7284 177.296 60.0518 178.234 59.6454C178.815 59.405 179.225 59.2476 178.972 58.5657L180.03 58.1418ZM178.487 57.2457C178.139 56.3016 177.977 56.2841 177.122 56.6381C176.267 56.9922 176.234 57.237 176.537 58.05L178.487 57.2457Z" fill="#231F20"/>
<path d="M180.604 54.2167L180.824 54.8199H180.866C180.878 54.5524 180.97 54.2958 181.127 54.0858C181.285 53.8756 181.501 53.7228 181.746 53.6484C182.654 53.2376 183.11 53.7052 183.459 54.5576L183.609 54.9204L182.646 55.3575L182.551 55.1215C182.359 54.6843 182.21 54.4178 181.72 54.6363C181.11 54.916 181.081 55.3706 181.338 55.9476L182.489 58.7407L181.459 59.2083L179.616 54.6756L180.604 54.2167Z" fill="#231F20"/>
<path d="M187.849 56.1492L186.322 56.9228L183.003 53.1246L184.039 52.6L186.72 55.8171H186.746L185.977 51.634L187.035 51.0964L187.849 56.1492Z" fill="#231F20"/>
<path d="M187.916 49.334L186.92 49.8846L186.48 49.0105L187.476 48.4597L187.916 49.334ZM190.572 54.684L189.576 55.2436L187.41 50.8725L188.405 50.3261L190.572 54.684Z" fill="#231F20"/>
<path d="M194.297 50.3136C195.07 51.7122 194.742 52.2805 193.377 53.111C191.887 54.0202 191.301 53.7622 190.365 52.0401C189.534 50.5453 189.385 49.7192 190.975 48.7488C192.177 48.0101 192.924 47.8177 193.667 49.1858L192.696 49.776C192.339 49.1246 192.082 49.129 191.405 49.5442C190.576 50.0557 190.733 50.3661 191.335 51.4632C191.937 52.5602 192.09 52.875 192.946 52.3373C193.8 51.7997 193.738 51.6598 193.327 50.908L194.297 50.3136Z" fill="#231F20"/>
<path d="M198.729 47.5423C199.559 48.8187 198.904 49.3826 197.8 50.165C196.323 51.2315 195.7 50.9518 194.675 49.3826C193.725 47.927 193.534 47.1315 195.09 46.0082C196.647 44.8849 197.21 45.1907 198.365 46.9654L195.713 48.8843C196.281 49.7585 196.485 50.0207 197.314 49.4219C197.829 49.0503 198.194 48.7969 197.8 48.1937L198.729 47.5423ZM197.044 47.031C196.497 46.1961 196.339 46.2223 195.584 46.7687C194.829 47.3151 194.846 47.5642 195.319 48.2811L197.044 47.031Z" fill="#231F20"/>
<path d="M165.391 62.0409C165.391 62.4534 165.276 62.8569 165.059 63.2003C164.842 63.5438 164.533 63.8117 164.172 63.9702C163.81 64.1286 163.411 64.1706 163.028 64.0906C162.643 64.0106 162.29 63.8125 162.013 63.521C161.735 63.2297 161.547 62.8581 161.471 62.4535C161.394 62.049 161.433 61.6295 161.582 61.2483C161.732 60.8671 161.986 60.5413 162.311 60.3119C162.637 60.0826 163.02 59.9602 163.411 59.9602C163.935 59.9602 164.438 60.1793 164.81 60.5694C165.181 60.9594 165.39 61.4886 165.391 62.0409Z" fill="#231F20"/>
<path d="M121.235 72.5095C121.235 72.9219 121.119 73.325 120.901 73.6678C120.684 74.0107 120.374 74.2779 120.013 74.4358C119.651 74.5935 119.253 74.6348 118.869 74.5544C118.485 74.4739 118.132 74.2754 117.856 73.9838C117.579 73.6922 117.39 73.3207 117.314 72.9162C117.238 72.5118 117.277 72.0926 117.427 71.7116C117.576 71.3306 117.83 71.005 118.156 70.7759C118.481 70.5468 118.864 70.4246 119.255 70.4246C119.78 70.4256 120.283 70.6456 120.654 71.0364C121.025 71.4272 121.234 71.9568 121.235 72.5095Z" fill="#231F20"/>
<path d="M72.1858 76.0846C72.1867 76.4971 72.0713 76.9006 71.8543 77.244C71.6373 77.5875 71.3285 77.8554 70.9668 78.0139C70.6052 78.1723 70.2071 78.2143 69.8229 78.1343C69.4386 78.0544 69.0856 77.8562 68.8084 77.5647C68.5311 77.2734 68.3422 76.9018 68.2654 76.4972C68.1887 76.0927 68.2277 75.6732 68.3773 75.292C68.5271 74.9108 68.7808 74.585 69.1063 74.3556C69.432 74.1263 69.8148 74.0039 70.2065 74.0039C70.7304 74.0051 71.2327 74.2246 71.6034 74.6143C71.9743 75.0042 72.1837 75.5327 72.1858 76.0846Z" fill="#231F20"/>
</g>
<defs>
<clipPath id="clip0_702_150">
<rect width="200" height="80" fill="white"/>
</clipPath>
</defs>
</svg>
